#!OML:ASF I:\Random Stuff\random\construction\7_22_03\Session 2\subj1.ASF
:FULLY-SPECIFIED
:DEGREES
361
root -4.43791 17.8257 0.878577 -133.493 85.4157 -137.987
lowerback -0.00117759 1.84839 1.61912
upperback -3.75151 2.62075 1.44573
thorax -3.85604 1.3093 0.492948
lowerneck -22.4801 -2.53618 0.540949
upperneck 15.972 -3.9345 1.4551
head 8.69156 -1.64135 -0.1305
rclavicle -2.49102e-015 3.27995e-015
rhumerus 39.2144 2.71181 -69.0657
rradius 94.5081
rwrist -24.0375
rhand -28.3313 7.22475
rfingers 7.12502
rthumb -1.70586 -22.7482
lclavicle -2.49102e-015 3.27995e-015
lhumerus -38.3754 -11.3169 93.6529
lradius 31.49
lwrist 33.9368
lhand -19.7649 58.1424
lfingers 7.12502
lthumb 6.56682 448.021
rfemur 1.00347 2.96661 20.5172
rtibia -1.59028e-015
rfoot -2.48531 -20.0693
rtoes -2.33311
lfemur -10.1084 -22.6831 -11.1539
ltibia 15.7465
lfoot -9.59059 20.4363
ltoes -31.1731
362
root -4.44156 17.8255 0.878267 -133.797 85.4757 -138.313
lowerback -0.0165579 1.86997 1.58622
upperback -3.74772 2.64674 1.4134
thorax -3.84319 1.32261 0.477851
lowerneck -22.4725 -2.53416 0.58637
upperneck 15.893 -3.92523 1.36271
head 8.65987 -1.64621 -0.167251
rclavicle -1.18587e-014 -2.98177e-016
rhumerus 38.5742 3.02173 -68.8683
rradius 94.7866
rwrist -23.8366
rhand -28.562 7.42717
rfingers 7.12502
rthumb -1.92868 -22.5439
lclavicle -1.18587e-014 -2.98177e-016
lhumerus -38.4024 -11.2924 93.6362
lradius 31.4867
lwrist 33.8106
lhand -19.7267 58.17
lfingers 7.12502
lthumb 6.60361 448.047
rfemur 0.952905 2.98869 20.4481
rtibia -7.95139e-016
rfoot -2.38178 -20.0285
rtoes -2.93236
lfemur -10.1105 -22.736 -11.208
ltibia 15.7022
lfoot -9.62082 20.515
ltoes -30.9731
363
root -4.44452 17.8265 0.879202 -133.558 85.5305 -138.104
lowerback -0.0512272 1.89786 1.57046
upperback -3.74869 2.68195 1.39224
thorax -3.82417 1.3404 0.465013
lowerneck -22.4788 -2.56367 0.518968
upperneck 15.8525 -3.95498 1.41987
head 8.64988 -1.65853 -0.140803
rclavicle -4.93856e-015 2.98177e-016
rhumerus 37.9089 3.33352 -68.6707
rradius 95.1201
rwrist -23.7625
rhand -28.6747 7.6052
rfingers 7.12502
rthumb -2.03758 -22.3648
lclavicle -4.93856e-015 2.98177e-016
lhumerus -38.4182 -11.2986 93.615
lradius 31.4281
lwrist 33.7251
lhand -19.6518 58.4167
lfingers 7.12502
lthumb 6.67597 448.291
rfemur 0.892148 3.03797 20.4209
rtibia 4.77083e-015
rfoot -2.30341 -19.9881
rtoes -2.99065
lfemur -10.1225 -22.7559 -11.2224
ltibia 15.6717
lfoot -9.63941 20.5868
ltoes -30.9862
364
root -4.44715 17.8284 0.881451 -132.937 85.54 -137.512
lowerback -0.0759791 1.92325 1.59336
upperback -3.75564 2.71572 1.38086
thorax -3.81576 1.35646 0.440275
lowerneck -22.4972 -2.58597 0.520446
upperneck 15.8331 -3.99407 1.46111
head 8.64751 -1.67213 -0.132434
rclavicle 1.002e-014 1.09332e-014
rhumerus 37.1914 3.68571 -68.4882
rradius 95.4964
rwrist -23.5464
rhand -28.8382 7.9162
rfingers 7.12502
rthumb -2.19547 -22.0523
lclavicle 1.002e-014 1.09332e-014
lhumerus -38.3986 -11.2982 93.5803
lradius 31.346
lwrist 33.7107
lhand -19.5891 58.6361
lfingers 7.12502
lthumb 6.73651 448.509
rfemur 0.838554 3.07803 20.4539
rtibia 5.56597e-015
rfoot -2.29133 -19.9596
rtoes -2.78962
lfemur -10.1518 -22.8033 -11.1689
ltibia 15.6538
lfoot -9.72479 20.664
ltoes -31.3203
365
root -4.44902 17.829 0.882716 -132.561 85.5599 -137.138
lowerback -0.0714738 1.94867 1.60804
upperback -3.75319 2.7489 1.35752
thorax -3.81385 1.37195 0.406964
lowerneck -22.54 -2.57635 0.624164
upperneck 15.821 -4.00765 1.4296
head 8.64784 -1.67527 -0.162081
rclavicle -1.15544e-015 1.59028e-014
rhumerus 36.4125 4.09405 -68.3116
rradius 95.9253
rwrist -23.2477
rhand -29.4477 8.19107
rfingers 7.12502
rthumb -2.78412 -21.7705
lclavicle -1.15544e-015 1.59028e-014
lhumerus -38.3827 -11.2673 93.5248
lradius 31.3283
lwrist 33.6708
lhand -19.488 58.7135
lfingers 7.12502
lthumb 6.83407 448.583
rfemur 0.818966 3.11263 20.465
rtibia 0
rfoot -2.2574 -19.9472
rtoes -3.0535
lfemur -10.1393 -23.0019 -11.1491
ltibia 15.6487
lfoot -9.89511 20.8714
ltoes -31.5749
366
root -4.44976 17.8282 0.883145 -132.355 85.6032 -136.931
lowerback -0.0737083 1.94476 1.59523
upperback -3.75711 2.74327 1.35267
thorax -3.817 1.36943 0.409296
lowerneck -22.5532 -2.53279 0.640855
upperneck 15.8159 -3.95932 1.45786
head 8.64862 -1.64822 -0.148621
rclavicle 2.08227e-014 2.98177e-015
rhumerus 35.6049 4.63212 -68.156
rradius 96.3922
rwrist -23.0484
rhand -30.0821 8.53707
rfingers 7.12502
rthumb -3.39674 -21.4156
lclavicle 2.08227e-014 2.98177e-015
lhumerus -38.428 -11.1829 93.4825
lradius 31.3914
lwrist 33.6718
lhand -19.485 58.8326
lfingers 7.12502
lthumb 6.83696 448.702
rfemur 0.803074 3.15324 20.4441
rtibia -8.74653e-015
rfoot -2.20739 -19.9721
rtoes -3.15141
lfemur -10.1205 -23.1741 -11.1658
ltibia 15.6538
lfoot -10.0079 21.052
ltoes -31.4725
367
root -4.44972 17.8286 0.885124 -131.841 85.6301 -136.458
lowerback -0.111543 1.92081 1.59886
upperback -3.79765 2.71328 1.3667
thorax -3.83838 1.35509 0.423201
lowerneck -22.5453 -2.47429 0.595199
upperneck 15.8631 -3.87877 1.52007
head 8.66564 -1.60546 -0.109319
rclavicle -9.89575e-015 -7.85199e-015
rhumerus 34.6899 5.28866 -68.0652
rradius 96.9504
rwrist -22.9094
rhand -30.3746 9.04121
rfingers 7.12502
rthumb -3.6792 -20.9068
lclavicle -9.89575e-015 -7.85199e-015
lhumerus -38.4589 -11.0659 93.4427
lradius 31.4106
lwrist 33.6509
lhand -19.4522 58.9081
lfingers 7.12502
lthumb 6.86869 448.777
rfemur 0.745781 3.19841 20.4574
rtibia -6.36111e-015
rfoot -2.16021 -19.9969
rtoes -3.10489
lfemur -10.1615 -23.3136 -11.129
ltibia 15.6689
lfoot -10.0389 21.234
ltoes -31.3374
368
root -4.44973 17.8296 0.887461 -131.384 85.6584 -136.044
lowerback -0.141789 1.9153 1.61464
upperback -3.83697 2.70703 1.35261
thorax -3.86077 1.35146 0.400444
lowerneck -22.6437 -2.43496 0.59944
upperneck 15.9828 -3.83628 1.54719
head 8.72399 -1.57934 -0.0969801
rclavicle -2.42269e-016 -5.46658e-015
rhumerus 33.7025 5.91311 -68.0594
rradius 97.5522
rwrist -22.7253
rhand -30.6495 9.32491
rfingers 7.12502
rthumb -3.94464 -20.6183
lclavicle -2.42269e-016 -5.46658e-015
lhumerus -38.4605 -11.049 93.4058
lradius 31.4365
lwrist 33.5822
lhand -19.4058 58.8151
lfingers 7.12502
lthumb 6.91343 448.682
rfemur 0.694311 3.24129 20.4705
rtibia -6.36111e-015
rfoot -2.13199 -20.004
rtoes -3.26701
lfemur -10.2104 -23.4323 -11.0969
ltibia 15.6953
lfoot -10.0497 21.4023
ltoes -31.3545
369
root -4.44974 17.8286 0.889183 -130.976 85.683 -135.628
lowerback -0.132361 1.91118 1.62744
upperback -3.84336 2.70275 1.36159
thorax -3.87266 1.34907 0.402186
lowerneck -22.7106 -2.4009 0.532855
upperneck 15.9745 -3.78408 1.61961
head 8.73531 -1.55044 -0.055054
rclavicle -3.42282e-015 6.4605e-015
rhumerus 32.7593 6.52949 -68.0201
rradius 98.1199
rwrist -22.4718
rhand -31.1127 9.27902
rfingers 7.12502
rthumb -4.39196 -20.6554
lclavicle -3.42282e-015 6.4605e-015
lhumerus -38.5076 -11.113 93.4362
lradius 31.5576
lwrist 33.539
lhand -19.4393 58.5268
lfingers 7.12502
lthumb 6.88105 448.395
rfemur 0.70241 3.2814 20.4851
rtibia 3.18055e-015
rfoot -2.13463 -20.0134
rtoes -3.39028
lfemur -10.2065 -23.4255 -11.0914
ltibia 15.7326
lfoot -10.076 21.4169
ltoes -31.3525
370
root -4.45004 17.8276 0.891594 -130.442 85.7049 -135.071
lowerback -0.103826 1.88608 1.61896
upperback -3.84564 2.67244 1.41885
thorax -3.8945 1.33541 0.465606
lowerneck -22.6522 -2.33758 0.350936
upperneck 15.8044 -3.66403 1.76348
head 8.6729 -1.49261 0.0416605
rclavicle 1.37348e-014 -1.55052e-014
rhumerus 31.8474 7.20529 -67.9397
rradius 98.6479
rwrist -22.1258
rhand -31.4594 9.24686
rfingers 7.12502
rthumb -4.72675 -20.6804
lclavicle 1.37348e-014 -1.55052e-014
lhumerus -38.5512 -11.1242 93.496
lradius 31.7291
lwrist 33.5323
lhand -19.4584 58.3683
lfingers 7.12502
lthumb 6.8627 448.237
rfemur 0.721064 3.32757 20.514
rtibia -5.56597e-015
rfoot -2.07113 -20.0209
rtoes -3.8661
lfemur -10.1811 -23.2945 -11.0861
ltibia 15.758
lfoot -10.0723 21.3296
ltoes -31.0793
371
root -4.45014 17.8273 0.894202 -129.873 85.7438 -134.492
lowerback -0.0909313 1.88899 1.62315
upperback -3.84906 2.67787 1.43964
thorax -3.90621 1.33841 0.483914
lowerneck -22.6463 -2.28806 0.283334
upperneck 15.6859 -3.57448 1.77642
head 8.63205 -1.45549 0.0700706
rclavicle -3.14825e-014 -4.77083e-015
rhumerus 30.912 7.80956 -67.9188
rradius 99.1342
rwrist -21.6724
rhand -31.6488 9.08168
rfingers 7.12502
rthumb -4.90966 -20.8414
lclavicle -3.14825e-014 -4.77083e-015
lhumerus -38.5158 -11.1417 93.5057
lradius 31.8819
lwrist 33.4916
lhand -19.4971 58.5152
lfingers 7.12502
lthumb 6.8253 448.385
rfemur 0.726445 3.38582 20.5287
rtibia 0
rfoot -2.01064 -20.016
rtoes -4.28757
lfemur -10.1526 -23.115 -11.0935
ltibia 15.7486
lfoot -10.0331 21.2754
ltoes -30.7323
372
root -4.44862 17.8258 0.896162 -129.281 85.8066 -133.893
lowerback -0.132347 1.92901 1.66043
upperback -3.83878 2.72857 1.39508
thorax -3.86808 1.36165 0.41752
lowerneck -22.6466 -2.24883 0.412566
upperneck 15.5923 -3.52993 1.62948
head 8.59408 -1.44477 0.00596485
rclavicle -2.14812e-014 -5.36719e-015
rhumerus 29.9303 8.31864 -67.9873
rradius 99.6034
rwrist -21.1983
rhand -32.014 8.56913
rfingers 7.12502
rthumb -5.26228 -21.3455
lclavicle -2.14812e-014 -5.36719e-015
lhumerus -38.4628 -11.3079 93.4851
lradius 31.9995
lwrist 33.4805
lhand -19.5859 58.7087
lfingers 7.12502
lthumb 6.73957 448.581
rfemur 0.736169 3.46015 20.5181
rtibia 1.59028e-015
rfoot -2.01179 -20.0071
rtoes -4.22659
lfemur -10.0942 -23.1065 -11.116
ltibia 15.7103
lfoot -10.0061 21.4038
ltoes -30.5007
373
root -4.44629 17.8245 0.89823 -128.989 85.9038 -133.585
lowerback -0.188437 1.94216 1.6426
upperback -3.824 2.74196 1.36042
thorax -3.81994 1.36838 0.39387
lowerneck -22.6209 -2.18716 0.555408
upperneck 15.534 -3.4568 1.46762
head 8.56329 -1.42113 -0.0613952
rclavicle 2.81094e-014 1.5704e-014
rhumerus 28.9658 8.86798 -68.1285
rradius 99.9799
rwrist -20.8437
rhand -32.4799 8.33498
rfingers 7.12502
rthumb -5.71208 -21.568
lclavicle 2.81094e-014 1.5704e-014
lhumerus -38.4282 -11.4333 93.4519
lradius 32.0638
lwrist 33.5118
lhand -19.6272 58.6404
lfingers 7.12502
lthumb 6.69974 448.514
rfemur 0.758317 3.53884 20.4627
rtibia -1.59028e-015
rfoot -2.02834 -20.0169
rtoes -4.21372
lfemur -10.011 -23.0796 -11.1883
ltibia 15.6557
lfoot -9.89657 21.4412
ltoes -30.3704
374
root -4.4449 17.8249 0.899742 -128.65 85.9911 -133.224
lowerback -0.223279 1.93373 1.61602
upperback -3.80799 2.72879 1.36899
thorax -3.78524 1.36303 0.419543
lowerneck -22.6587 -2.14249 0.608816
upperneck 15.5795 -3.38272 1.31105
head 8.58066 -1.40013 -0.113837
rclavicle 6.24308e-015 1.49089e-015
rhumerus 28.0507 9.45925 -68.2401
rradius 100.261
rwrist -20.6597
rhand -32.7807 8.5505
rfingers 7.12502
rthumb -6.00246 -21.3445
lclavicle 6.24308e-015 1.49089e-015
lhumerus -38.3556 -11.3972 93.4114
lradius 32.0344
lwrist 33.4177
lhand -19.5836 58.1052
lfingers 7.12502
lthumb 6.74177 447.978
rfemur 0.780719 3.61344 20.4176
rtibia -6.36111e-015
rfoot -1.9909 -20.0144
rtoes -4.21151
lfemur -9.92682 -22.721 -11.2673
ltibia 15.5756
lfoot -9.76051 21.1133
ltoes -30.5559
375
root -4.44405 17.8257 0.899814 -127.915 86.0632 -132.478
lowerback -0.269008 1.92497 1.6395
upperback -3.79517 2.71627 1.37951
thorax -3.74558 1.35655 0.419654
lowerneck -22.6748 -2.10138 0.622438
upperneck 15.6061 -3.30254 1.16701
head 8.58895 -1.37784 -0.154459
rclavicle -5.18083e-015 1.21259e-014
rhumerus 27.1194 10.0833 -68.3642
rradius 100.513
rwrist -20.4865
rhand -33.0362 9.04307
rfingers 7.12502
rthumb -6.24915 -20.8448
lclavicle -5.18083e-015 1.21259e-014
lhumerus -38.3138 -11.3316 93.3754
lradius 32.0905
lwrist 33.2971
lhand -19.6054 57.829
lfingers 7.12502
lthumb 6.72078 447.702
rfemur 0.779306 3.69856 20.4011
rtibia 4.77083e-015
rfoot -1.89134 -19.9979
rtoes -4.33684
lfemur -9.8495 -22.3709 -11.3148
ltibia 15.4821
lfoot -9.70048 20.8209
ltoes -30.6774
